# Blender v2.76 (sub 0) OBJ File: 'goldCoin.blend'
# www.blender.org
mtllib goldCoin.mtl
o coin.001_Circle.001
v -0.241340 0.074456 -0.118185
v -0.273128 0.074456 -0.198876
v -0.154535 0.074456 -0.404274
v 0.168232 0.074456 -0.404274
v 0.168232 0.074456 0.449103
v -0.154535 0.074456 0.449103
v -0.154535 0.074456 -0.118185
v -0.278899 0.031508 -0.063021
v -0.241340 0.074456 -0.118185
v -0.334206 0.031508 -0.203415
v -0.273128 0.074456 -0.198876
v -0.186383 0.031508 -0.459437
v -0.154535 0.074456 -0.404274
v 0.223395 0.031508 -0.459437
v 0.168232 0.074456 -0.404274
v 0.223395 0.031508 0.504266
v 0.168232 0.074456 0.449103
v -0.209699 0.031508 0.504266
v -0.154535 0.074456 0.449103
v -0.209699 0.031508 -0.063021
v -0.154535 0.074456 -0.118185
v 0.205771 -0.072694 -0.980786
v 0.393364 -0.072694 -0.923880
v 0.566251 -0.072694 -0.831470
v 0.717788 -0.072694 -0.707108
v 0.842151 -0.072694 -0.555571
v 0.934561 -0.072694 -0.382684
v 0.991467 -0.072694 -0.195091
v 1.010682 -0.072694 -0.000001
v 0.991468 -0.072694 0.195089
v 0.934562 -0.072694 0.382683
v 0.842152 -0.072694 0.555570
v 0.717789 -0.072694 0.707106
v 0.566253 -0.072694 0.831469
v 0.393366 -0.072694 0.923879
v 0.205773 -0.072694 0.980785
v 0.010682 -0.072694 1.000000
v -0.184408 -0.072694 0.980785
v -0.372001 -0.072694 0.923880
v -0.544888 -0.072694 0.831470
v -0.696425 -0.072694 0.707107
v -0.820788 -0.072694 0.555570
v -0.913197 -0.072694 0.382683
v -0.970103 -0.072694 0.195090
v -0.989318 -0.072694 -0.000000
v -0.970103 -0.072694 -0.195090
v -0.913197 -0.072694 -0.382683
v -0.820788 -0.072694 -0.555570
v -0.696425 -0.072694 -0.707107
v -0.544888 -0.072694 -0.831470
v -0.372001 -0.072694 -0.923880
v -0.184408 -0.072694 -0.980785
v 0.010682 -0.072694 -1.000000
v 0.010682 -0.072694 -0.821606
v -0.149605 -0.072694 -0.805819
v -0.303733 -0.072694 -0.759065
v -0.445778 -0.072694 -0.683140
v -0.570281 -0.072694 -0.580963
v -0.672458 -0.072694 -0.456460
v -0.748383 -0.072694 -0.314415
v -0.795137 -0.072694 -0.160287
v -0.810924 -0.072694 -0.000000
v -0.795137 -0.072694 0.160287
v -0.748383 -0.072694 0.314415
v -0.672458 -0.072694 0.456460
v -0.570281 -0.072694 0.580963
v -0.445778 -0.072694 0.683140
v -0.303733 -0.072694 0.759065
v -0.149605 -0.072694 0.805819
v 0.010682 -0.072694 0.821606
v 0.170970 -0.072694 0.805819
v 0.325097 -0.072694 0.759064
v 0.467142 -0.072694 0.683140
v 0.591645 -0.072694 0.580963
v 0.693823 -0.072694 0.456459
v 0.769747 -0.072694 0.314414
v 0.816501 -0.072694 0.160287
v 0.832288 -0.072694 -0.000001
v 0.816501 -0.072694 -0.160288
v 0.769746 -0.072694 -0.314416
v 0.693822 -0.072694 -0.456461
v 0.591644 -0.072694 -0.580964
v 0.467141 -0.072694 -0.683141
v 0.325096 -0.072694 -0.759065
v 0.170968 -0.072694 -0.805819
v 0.205771 0.083611 -0.980786
v 0.393364 0.083611 -0.923880
v 0.566251 0.083611 -0.831470
v 0.717788 0.083611 -0.707108
v 0.842151 0.083611 -0.555571
v 0.934561 0.083611 -0.382684
v 0.991467 0.083611 -0.195091
v 1.010682 0.083611 -0.000001
v 0.991468 0.083611 0.195089
v 0.934562 0.083611 0.382683
v 0.842152 0.083611 0.555570
v 0.717789 0.083611 0.707106
v 0.566253 0.083611 0.831469
v 0.393366 0.083611 0.923879
v 0.205773 0.083611 0.980785
v 0.010682 0.083611 1.000000
v -0.184408 0.083611 0.980785
v -0.372001 0.083611 0.923880
v -0.544888 0.083611 0.831470
v -0.696425 0.083611 0.707107
v -0.820788 0.083611 0.555570
v -0.913197 0.083611 0.382683
v -0.970103 0.083611 0.195090
v -0.989318 0.083611 -0.000000
v -0.970103 0.083611 -0.195090
v -0.913197 0.083611 -0.382683
v -0.820788 0.083611 -0.555570
v -0.696425 0.083611 -0.707107
v -0.544888 0.083611 -0.831470
v -0.372001 0.083611 -0.923880
v -0.184408 0.083611 -0.980785
v 0.010682 0.083611 -1.000000
v 0.010682 0.083611 -0.821606
v -0.149605 0.083611 -0.805819
v -0.303733 0.083611 -0.759065
v -0.445778 0.083611 -0.683140
v -0.570281 0.083611 -0.580963
v -0.672458 0.083611 -0.456460
v -0.748383 0.083611 -0.314415
v -0.795137 0.083611 -0.160287
v -0.810924 0.083611 -0.000000
v -0.795137 0.083611 0.160287
v -0.748383 0.083611 0.314415
v -0.672458 0.083611 0.456460
v -0.570281 0.083611 0.580963
v -0.445778 0.083611 0.683140
v -0.303733 0.083611 0.759065
v -0.149605 0.083611 0.805819
v 0.010682 0.083611 0.821606
v 0.170970 0.083611 0.805819
v 0.325097 0.083611 0.759064
v 0.467142 0.083611 0.683140
v 0.591645 0.083611 0.580963
v 0.693823 0.083611 0.456459
v 0.769747 0.083611 0.314414
v 0.816501 0.083611 0.160287
v 0.832288 0.083611 -0.000001
v 0.816501 0.083611 -0.160288
v 0.769746 0.083611 -0.314416
v 0.693822 0.083611 -0.456461
v 0.591644 0.083611 -0.580964
v 0.467141 0.083611 -0.683141
v 0.325096 0.083611 -0.759065
v 0.170968 0.083611 -0.805819
v 0.170970 -0.020592 0.805819
v 0.170970 0.031510 0.805819
v 0.010682 -0.020592 0.821606
v 0.010682 0.031510 0.821606
v -0.149605 -0.020592 0.805819
v -0.149605 0.031510 0.805819
v -0.303733 -0.020592 0.759065
v -0.303733 0.031510 0.759065
v -0.445778 -0.020592 0.683140
v -0.445778 0.031510 0.683140
v -0.570281 -0.020592 0.580963
v -0.570281 0.031510 0.580963
v -0.672458 -0.020592 0.456460
v -0.672458 0.031510 0.456460
v -0.748383 -0.020592 0.314415
v -0.748383 0.031510 0.314415
v -0.795137 -0.020592 0.160287
v -0.795137 0.031510 0.160287
v -0.810924 -0.020592 -0.000000
v -0.810924 0.031510 -0.000000
v -0.795137 -0.020592 -0.160287
v -0.795137 0.031510 -0.160287
v -0.748383 -0.020592 -0.314415
v -0.748383 0.031510 -0.314415
v -0.672458 -0.020592 -0.456460
v -0.672458 0.031510 -0.456460
v -0.570281 -0.020592 -0.580963
v -0.570281 0.031510 -0.580963
v 0.325097 -0.020592 0.759064
v 0.325097 0.031510 0.759064
v 0.467142 -0.020592 0.683140
v 0.467142 0.031510 0.683140
v 0.591645 -0.020592 0.580963
v 0.591645 0.031510 0.580963
v 0.693823 -0.020592 0.456459
v 0.693823 0.031510 0.456459
v 0.769747 -0.020592 0.314414
v 0.769747 0.031510 0.314414
v 0.816501 -0.020592 0.160287
v 0.816501 0.031510 0.160287
v 0.832288 -0.020592 -0.000001
v 0.832288 0.031510 -0.000001
v 0.816501 -0.020592 -0.160288
v 0.816501 0.031510 -0.160288
v 0.769746 -0.020592 -0.314416
v 0.769746 0.031510 -0.314416
v 0.693822 -0.020592 -0.456461
v 0.693822 0.031510 -0.456461
v 0.591644 -0.020592 -0.580964
v 0.591644 0.031510 -0.580964
v 0.467141 -0.020592 -0.683141
v 0.467141 0.031510 -0.683141
v 0.325096 -0.020592 -0.759065
v 0.325096 0.031510 -0.759065
v 0.170968 -0.020592 -0.805819
v 0.170968 0.031510 -0.805819
v 0.010682 -0.020592 -0.821606
v 0.010682 0.031510 -0.821606
v -0.149605 -0.020592 -0.805819
v -0.149605 0.031510 -0.805819
v -0.303733 -0.020592 -0.759065
v -0.303733 0.031510 -0.759065
v -0.445778 -0.020592 -0.683140
v -0.445778 0.031510 -0.683140
vt 0.373989 0.559092
vt 0.358095 0.599438
vt 0.327556 0.601708
vt 0.355210 0.531510
vt 0.417391 0.702137
vt 0.401467 0.729719
vt 0.578775 0.702137
vt 0.606357 0.729719
vt 0.578775 0.275449
vt 0.417391 0.275449
vt 0.389809 0.247867
vt 0.606357 0.247867
vt 0.417391 0.559092
vt 0.389809 0.531510
vt 0.146447 0.853553
vt 0.209518 0.790482
vt 0.158430 0.728230
vt 0.084265 0.777785
vt 0.000000 0.500000
vt 0.089197 0.500000
vt 0.097091 0.419856
vt 0.009607 0.402455
vt 0.146447 0.146447
vt 0.209518 0.209519
vt 0.271770 0.158430
vt 0.222215 0.084265
vt 0.500000 0.000000
vt 0.500000 0.089197
vt 0.580144 0.097091
vt 0.597545 0.009607
vt 0.853554 0.146447
vt 0.790482 0.209519
vt 0.841570 0.271770
vt 0.915735 0.222215
vt 1.000000 0.500000
vt 0.910803 0.500000
vt 0.902909 0.580144
vt 0.990393 0.597546
vt 0.853553 0.853554
vt 0.790481 0.790482
vt 0.728229 0.841570
vt 0.777785 0.915735
vt 0.402455 0.009607
vt 0.419857 0.097091
vt 0.222215 0.915735
vt 0.271770 0.841570
vt 0.009607 0.597545
vt 0.097091 0.580144
vt 0.084265 0.222215
vt 0.158430 0.271770
vt 0.777786 0.084265
vt 0.728230 0.158430
vt 0.990393 0.402455
vt 0.902909 0.419857
vt 0.915734 0.777786
vt 0.841570 0.728230
vt 0.597544 0.990393
vt 0.580143 0.902909
vt 0.500000 0.910803
vt 0.500000 1.000000
vt 0.038060 0.308658
vt 0.120468 0.342793
vt 0.308658 0.038060
vt 0.342793 0.120468
vt 0.308658 0.961940
vt 0.342793 0.879532
vt 0.038060 0.691342
vt 0.120468 0.657208
vt 0.691342 0.038060
vt 0.657208 0.120468
vt 0.961940 0.308659
vt 0.879533 0.342793
vt 0.961940 0.691342
vt 0.879532 0.657208
vt 0.691341 0.961940
vt 0.657207 0.879533
vt 0.402455 0.990393
vt 0.419856 0.902909
vn -0.571600 0.789100 0.225200
vn -0.532000 0.789100 -0.307200
vn 0.000000 0.789100 -0.614300
vn 0.000000 0.789100 0.614300
vn -0.614300 0.789100 0.000000
vn 0.000000 -1.000000 0.000000
vn 0.000000 1.000000 -0.000000
vn -0.098000 0.000000 -0.995200
vn -0.773000 0.000000 -0.634400
vn -0.995200 0.000000 0.098000
vn -0.634400 0.000000 0.773000
vn 0.098000 0.000000 0.995200
vn 0.773000 0.000000 0.634400
vn 0.995200 0.000000 -0.098000
vn 0.634400 0.000000 -0.773000
vn -0.634400 0.000000 -0.773000
vn -0.995200 0.000000 -0.098000
vn -0.773000 0.000000 0.634400
vn -0.098000 0.000000 0.995200
vn 0.773000 0.000000 -0.634400
vn 0.098000 0.000000 -0.995200
vn 0.634400 0.000000 0.773000
vn 0.995200 0.000000 0.098000
vn -0.471400 0.000000 -0.881900
vn -0.956900 0.000000 -0.290300
vn -0.881900 0.000000 0.471400
vn -0.290300 0.000000 0.956900
vn 0.956900 0.000000 0.290300
vn 0.881900 0.000000 -0.471400
vn 0.290300 0.000000 -0.956900
vn 0.471400 0.000000 0.881900
vn -0.290300 0.000000 -0.956900
vn -0.881900 0.000000 -0.471400
vn -0.956900 0.000000 0.290300
vn -0.471400 0.000000 0.881900
vn 0.290300 0.000000 0.956900
vn 0.881900 0.000000 0.471400
vn 0.956900 0.000000 -0.290300
vn 0.471400 0.000000 -0.881900
vn 0.614300 0.789100 0.000000
usemtl Gold.001
s off
f 9/1/1 11/2/1 10/3/1 8/4/1
f 11/2/2 13/5/2 12/6/2 10/3/2
f 13/5/3 15/7/3 14/8/3 12/6/3
f 17/9/4 19/10/4 18/11/4 16/12/4
f 19/10/5 21/13/5 20/14/5 18/11/5
f 21/13/4 9/1/4 8/4/4 20/14/4
f 49/15/6 58/16/6 59/17/6 48/18/6
f 45/19/6 62/20/6 63/21/6 44/22/6
f 41/23/6 66/24/6 67/25/6 40/26/6
f 37/27/6 70/28/6 71/29/6 36/30/6
f 33/31/6 74/32/6 75/33/6 32/34/6
f 29/35/6 78/36/6 79/37/6 28/38/6
f 25/39/6 82/40/6 83/41/6 24/42/6
f 38/43/6 69/44/6 70/28/6 37/27/6
f 50/45/6 57/46/6 58/16/6 49/15/6
f 46/47/6 61/48/6 62/20/6 45/19/6
f 42/49/6 65/50/6 66/24/6 41/23/6
f 34/51/6 73/52/6 74/32/6 33/31/6
f 30/53/6 77/54/6 78/36/6 29/35/6
f 26/55/6 81/56/6 82/40/6 25/39/6
f 22/57/6 85/58/6 54/59/6 53/60/6
f 43/61/6 64/62/6 65/50/6 42/49/6
f 39/63/6 68/64/6 69/44/6 38/43/6
f 51/65/6 56/66/6 57/46/6 50/45/6
f 47/67/6 60/68/6 61/48/6 46/47/6
f 35/69/6 72/70/6 73/52/6 34/51/6
f 31/71/6 76/72/6 77/54/6 30/53/6
f 27/73/6 80/74/6 81/56/6 26/55/6
f 23/75/6 84/76/6 85/58/6 22/57/6
f 48/18/6 59/17/6 60/68/6 47/67/6
f 44/22/6 63/21/6 64/62/6 43/61/6
f 40/26/6 67/25/6 68/64/6 39/63/6
f 52/77/6 55/78/6 56/66/6 51/65/6
f 36/30/6 71/29/6 72/70/6 35/69/6
f 32/34/6 75/33/6 76/72/6 31/71/6
f 28/38/6 79/37/6 80/74/6 27/73/6
f 24/42/6 83/41/6 84/76/6 23/75/6
f 53/60/6 54/59/6 55/78/6 52/77/6
f 113/15/7 112/18/7 123/17/7 122/16/7
f 109/19/7 108/22/7 127/21/7 126/20/7
f 105/23/7 104/26/7 131/25/7 130/24/7
f 101/27/7 100/30/7 135/29/7 134/28/7
f 97/31/7 96/34/7 139/33/7 138/32/7
f 93/35/7 92/38/7 143/37/7 142/36/7
f 89/39/7 88/42/7 147/41/7 146/40/7
f 102/43/7 101/27/7 134/28/7 133/44/7
f 114/45/7 113/15/7 122/16/7 121/46/7
f 110/47/7 109/19/7 126/20/7 125/48/7
f 106/49/7 105/23/7 130/24/7 129/50/7
f 98/51/7 97/31/7 138/32/7 137/52/7
f 94/53/7 93/35/7 142/36/7 141/54/7
f 90/55/7 89/39/7 146/40/7 145/56/7
f 86/57/7 117/60/7 118/59/7 149/58/7
f 107/61/7 106/49/7 129/50/7 128/62/7
f 103/63/7 102/43/7 133/44/7 132/64/7
f 115/65/7 114/45/7 121/46/7 120/66/7
f 111/67/7 110/47/7 125/48/7 124/68/7
f 99/69/7 98/51/7 137/52/7 136/70/7
f 95/71/7 94/53/7 141/54/7 140/72/7
f 91/73/7 90/55/7 145/56/7 144/74/7
f 87/75/7 86/57/7 149/58/7 148/76/7
f 112/18/7 111/67/7 124/68/7 123/17/7
f 108/22/7 107/61/7 128/62/7 127/21/7
f 104/26/7 103/63/7 132/64/7 131/25/7
f 116/77/7 115/65/7 120/66/7 119/78/7
f 100/30/7 99/69/7 136/70/7 135/29/7
f 96/34/7 95/71/7 140/72/7 139/33/7
f 92/38/7 91/73/7 144/74/7 143/37/7
f 88/42/7 87/75/7 148/76/7 147/41/7
f 117/60/7 116/77/7 119/78/7 118/59/7
f 53/60/8 52/77/8 116/77/8 117/60/8
f 49/15/9 48/18/9 112/18/9 113/15/9
f 45/19/10 44/22/10 108/22/10 109/19/10
f 41/23/11 40/26/11 104/26/11 105/23/11
f 37/27/12 36/30/12 100/30/12 101/27/12
f 33/31/13 32/34/13 96/34/13 97/31/13
f 29/35/14 28/38/14 92/38/14 93/35/14
f 25/39/15 24/42/15 88/42/15 89/39/15
f 50/45/16 49/15/16 113/15/16 114/45/16
f 46/47/17 45/19/17 109/19/17 110/47/17
f 42/49/18 41/23/18 105/23/18 106/49/18
f 38/43/19 37/27/19 101/27/19 102/43/19
f 26/55/20 25/39/20 89/39/20 90/55/20
f 22/57/21 53/60/21 117/60/21 86/57/21
f 34/51/22 33/31/22 97/31/22 98/51/22
f 30/53/23 29/35/23 93/35/23 94/53/23
f 51/65/24 50/45/24 114/45/24 115/65/24
f 47/67/25 46/47/25 110/47/25 111/67/25
f 43/61/26 42/49/26 106/49/26 107/61/26
f 39/63/27 38/43/27 102/43/27 103/63/27
f 31/71/28 30/53/28 94/53/28 95/71/28
f 27/73/29 26/55/29 90/55/29 91/73/29
f 23/75/30 22/57/30 86/57/30 87/75/30
f 35/69/31 34/51/31 98/51/31 99/69/31
f 52/77/32 51/65/32 115/65/32 116/77/32
f 48/18/33 47/67/33 111/67/33 112/18/33
f 44/22/34 43/61/34 107/61/34 108/22/34
f 40/26/35 39/63/35 103/63/35 104/26/35
f 36/30/36 35/69/36 99/69/36 100/30/36
f 32/34/37 31/71/37 95/71/37 96/34/37
f 28/38/38 27/73/38 91/73/38 92/38/38
f 24/42/39 23/75/39 87/75/39 88/42/39
f 4/7/7 3/5/7 2/2/7 1/1/7 7/13/7 6/10/7 5/9/7
f 201/41/35 147/41/35 148/76/35 203/76/35
f 199/40/11 146/40/11 147/41/11 201/41/11
f 197/56/18 145/56/18 146/40/18 199/40/18
f 195/74/26 144/74/26 145/56/26 197/56/26
f 193/37/34 143/37/34 144/74/34 195/74/34
f 191/36/10 142/36/10 143/37/10 193/37/10
f 189/54/17 141/54/17 142/36/17 191/36/17
f 187/72/25 140/72/25 141/54/25 189/54/25
f 185/33/33 139/33/33 140/72/33 187/72/33
f 183/32/9 138/32/9 139/33/9 185/33/9
f 181/52/16 137/52/16 138/32/16 183/32/16
f 179/70/24 136/70/24 137/52/24 181/52/24
f 151/29/32 135/29/32 136/70/32 179/70/32
f 153/28/8 134/28/8 135/29/8 151/29/8
f 155/44/21 133/44/21 134/28/21 153/28/21
f 157/64/30 132/64/30 133/44/30 155/44/30
f 159/25/39 131/25/39 132/64/39 157/64/39
f 161/24/15 130/24/15 131/25/15 159/25/15
f 163/50/20 129/50/20 130/24/20 161/24/20
f 165/62/29 128/62/29 129/50/29 163/50/29
f 167/21/38 127/21/38 128/62/38 165/62/38
f 169/20/14 126/20/14 127/21/14 167/21/14
f 171/48/23 125/48/23 126/20/23 169/20/23
f 173/68/28 124/68/28 125/48/28 171/48/28
f 175/17/37 123/17/37 124/68/37 173/68/37
f 177/16/13 122/16/13 123/17/13 175/17/13
f 213/46/22 121/46/22 122/16/22 177/16/22
f 211/66/31 120/66/31 121/46/31 213/46/31
f 209/78/36 119/78/36 120/66/36 211/66/36
f 207/59/12 118/59/12 119/78/12 209/78/12
f 205/58/19 149/58/19 118/59/19 207/59/19
f 203/76/27 148/76/27 149/58/27 205/58/27
f 83/41/35 200/41/35 202/76/35 84/76/35
f 82/40/11 198/40/11 200/41/11 83/41/11
f 81/56/18 196/56/18 198/40/18 82/40/18
f 80/74/26 194/74/26 196/56/26 81/56/26
f 79/37/34 192/37/34 194/74/34 80/74/34
f 78/36/10 190/36/10 192/37/10 79/37/10
f 77/54/17 188/54/17 190/36/17 78/36/17
f 76/72/25 186/72/25 188/54/25 77/54/25
f 75/33/33 184/33/33 186/72/33 76/72/33
f 74/32/9 182/32/9 184/33/9 75/33/9
f 73/52/16 180/52/16 182/32/16 74/32/16
f 72/70/24 178/70/24 180/52/24 73/52/24
f 71/29/32 150/29/32 178/70/32 72/70/32
f 70/28/8 152/28/8 150/29/8 71/29/8
f 69/44/21 154/44/21 152/28/21 70/28/21
f 68/64/30 156/64/30 154/44/30 69/44/30
f 67/25/39 158/25/39 156/64/39 68/64/39
f 66/24/15 160/24/15 158/25/15 67/25/15
f 65/50/20 162/50/20 160/24/20 66/24/20
f 64/62/29 164/62/29 162/50/29 65/50/29
f 63/21/38 166/21/38 164/62/38 64/62/38
f 62/20/14 168/20/14 166/21/14 63/21/14
f 61/48/23 170/48/23 168/20/23 62/20/23
f 60/68/28 172/68/28 170/48/28 61/48/28
f 59/17/37 174/17/37 172/68/37 60/68/37
f 58/16/13 176/16/13 174/17/13 59/17/13
f 57/46/22 212/46/22 176/16/22 58/16/22
f 56/66/31 210/66/31 212/46/31 57/46/31
f 55/78/36 208/78/36 210/66/36 56/66/36
f 54/59/12 206/59/12 208/78/12 55/78/12
f 85/58/19 204/58/19 206/59/19 54/59/19
f 84/76/27 202/76/27 204/58/27 85/58/27
f 14/8/40 15/7/40 5/9/40 4/7/40 17/9/40 16/12/40
f 16/12/7 18/11/7 155/44/7 153/28/7
f 153/28/7 151/29/7 16/12/7
f 179/70/7 16/12/7 151/29/7
f 155/44/7 18/11/7 157/64/7
f 157/64/7 18/11/7 159/25/7
f 159/25/7 18/11/7 161/24/7
f 18/11/7 20/14/7 163/50/7 161/24/7
f 20/14/7 8/4/7 165/62/7 163/50/7
f 165/62/7 8/4/7 167/21/7
f 167/21/7 8/4/7 169/20/7
f 8/4/7 10/3/7 171/48/7 169/20/7
f 10/3/7 12/6/7 173/68/7 171/48/7
f 173/68/7 12/6/7 175/17/7
f 175/17/7 12/6/7 177/16/7
f 177/16/7 12/6/7 213/46/7
f 213/46/7 12/6/7 211/66/7
f 211/66/7 12/6/7 209/78/7
f 12/6/7 14/8/7 207/59/7 209/78/7
f 207/59/7 14/8/7 205/58/7
f 205/58/7 14/8/7 203/76/7
f 203/76/7 14/8/7 201/41/7
f 201/41/7 14/8/7 199/40/7
f 199/40/7 14/8/7 197/56/7
f 197/56/7 14/8/7 195/74/7
f 195/74/7 14/8/7 193/37/7
f 193/37/7 14/8/7 191/36/7
f 191/36/7 14/8/7 189/54/7
f 189/54/7 14/8/7 187/72/7
f 181/52/7 16/12/7 179/70/7
f 183/32/7 16/12/7 181/52/7
f 185/33/7 16/12/7 183/32/7
f 14/8/7 16/12/7 185/33/7 187/72/7
f 200/41/6 198/40/6 196/56/6 194/74/6 192/37/6 190/36/6 188/54/6 186/72/6 184/33/6 182/32/6 180/52/6 178/70/6 150/29/6 152/28/6 154/44/6 156/64/6 158/25/6 160/24/6 162/50/6 164/62/6 166/21/6 168/20/6 170/48/6 172/68/6 174/17/6 176/16/6 212/46/6 210/66/6 208/78/6 206/59/6 204/58/6 202/76/6
